Coordinates
version=1
nRows=38
nColumns=38
inDegrees=no

Units are S.I. units (second, meters, Newtons, ...)
If the header above contains a line with 'inDegrees', this indicates whether rotational values are in degrees (yes) or radians (no).

endheader
time	pelvis_tilt	pelvis_list	pelvis_rotation	pelvis_tx	pelvis_ty	pelvis_tz	hip_flexion_r	hip_adduction_r	hip_rotation_r	knee_angle_r	ankle_angle_r	subtalar_angle_r	mtp_angle_r	hip_flexion_l	hip_adduction_l	hip_rotation_l	knee_angle_l	ankle_angle_l	subtalar_angle_l	mtp_angle_l	lumbar_extension	lumbar_bending	lumbar_rotation	arm_flex_r	arm_add_r	arm_rot_r	elbow_flex_r	pro_sup_r	wrist_flex_r	wrist_dev_r	arm_flex_l	arm_add_l	arm_rot_l	elbow_flex_l	pro_sup_l	wrist_flex_l	wrist_dev_l
62.04	0.162223	1.27679	1.53094	0.697287	0.538208	0.807254	0.998791	-0.169756	-0.0398449	1.2326	-0.0953226	0	0	0.922855	-0.261008	-0.203521	1.08943	-0.177648	0	0	-0.544662	0.262125	0.0167767	0.481754	-0.470707	0.0687352	0.660687	1.18967	0	0	0.171983	-0.280885	0.0590808	0.938466	1.5708	0	0
62.05	0.15681	1.27283	1.53588	0.697648	0.53677	0.804243	1.01236	-0.171462	-0.0363321	1.24313	-0.0946804	0	0	0.936195	-0.26086	-0.200032	1.10149	-0.175116	0	0	-0.551339	0.261049	0.0190072	0.485875	-0.471566	0.0664799	0.663915	1.19347	0	0	0.17529	-0.279842	0.0577481	0.937248	1.5708	0	0
62.06	0.152156	1.27052	1.53942	0.698293	0.535507	0.80147	1.02386	-0.171835	-0.0330648	1.25367	-0.0934839	0	0	0.946969	-0.262514	-0.198415	1.11318	-0.172587	0	0	-0.559766	0.259348	0.0219223	0.489944	-0.471757	0.0637951	0.66681	1.19586	0	0	0.179052	-0.279407	0.0569267	0.935781	1.5708	0	0
62.07	0.148721	1.26877	1.54233	0.698674	0.534269	0.79889	1.03378	-0.172896	-0.0314236	1.26301	-0.0919661	0	0	0.956771	-0.263377	-0.196339	1.12425	-0.169733	0	0	-0.568858	0.258439	0.0246041	0.494317	-0.472892	0.0623144	0.670139	1.1981	0	0	0.182956	-0.278175	0.0554291	0.934768	1.5708	0	0
62.08	0.146214	1.27069	1.54601	0.698378	0.533378	0.796862	1.0378	-0.177465	-0.0334289	1.2706	-0.0918587	0	0	0.961319	-0.262416	-0.195341	1.13395	-0.16953	0	0	-0.581316	0.258819	0.0252013	0.502507	-0.481391	0.0862947	0.671905	1.16357	0	0	0.18654	-0.276132	0.053355	0.934006	1.5708	0	0
62.09	0.143737	1.26908	1.54846	0.698493	0.532217	0.794319	1.04734	-0.179493	-0.032421	1.27969	-0.0903881	0	0	0.970606	-0.262584	-0.193479	1.14465	-0.166126	0	0	-0.589763	0.25879	0.0276466	0.505698	-0.482204	0.0815736	0.676663	1.16942	0	0	0.19027	-0.274293	0.0521401	0.932801	1.5708	0	0
62.1	0.142277	1.26626	1.55052	0.698634	0.531027	0.791684	1.05791	-0.181324	-0.031165	1.28916	-0.0888178	0	0	0.981412	-0.262317	-0.190595	1.15482	-0.163042	0	0	-0.596404	0.259062	0.0299213	0.508226	-0.483282	0.0772399	0.681776	1.17501	0	0	0.193932	-0.272786	0.0517701	0.931241	1.5708	0	0
62.11	0.140615	1.26302	1.55287	0.698734	0.529784	0.789063	1.06875	-0.182907	-0.0296207	1.29851	-0.0871284	0	0	0.992543	-0.261552	-0.18741	1.16431	-0.160219	0	0	-0.601518	0.259956	0.0307798	0.512053	-0.482968	0.0735298	0.68566	1.17957	0	0	0.1971	-0.271605	0.0512969	0.928597	1.5708	0	0
62.12	0.139246	1.25891	1.55475	0.698828	0.528546	0.786439	1.08011	-0.183715	-0.0277045	1.30698	-0.0854149	0	0	1.00438	-0.260946	-0.184265	1.17338	-0.157672	0	0	-0.605391	0.260882	0.0316188	0.515723	-0.482324	0.0697502	0.689453	1.18239	0	0	0.199856	-0.270314	0.0506503	0.926298	1.5708	0	0
62.13	0.138648	1.25445	1.55574	0.698958	0.527365	0.783877	1.09167	-0.184132	-0.0254543	1.31488	-0.0842786	0	0	1.01629	-0.260704	-0.181156	1.18199	-0.155368	0	0	-0.608757	0.261732	0.0327196	0.518789	-0.481734	0.065839	0.693785	1.18413	0	0	0.202283	-0.268865	0.0494797	0.924724	1.5708	0	0
62.14	0.138917	1.24986	1.55568	0.69913	0.526241	0.781409	1.10328	-0.184212	-0.0230859	1.32262	-0.0838593	0	0	1.02802	-0.26081	-0.177953	1.19013	-0.153217	0	0	-0.612041	0.262343	0.0342534	0.52148	-0.481759	0.0626271	0.698765	1.18684	0	0	0.204352	-0.26742	0.0480506	0.924102	1.5708	0	0
62.15	0.138115	1.24123	1.55623	0.699298	0.525034	0.778626	1.11987	-0.183783	-0.0199535	1.3306	-0.0844641	0	0	1.04427	-0.260177	-0.173637	1.19825	-0.149895	0	0	-0.610777	0.262781	0.0367397	0.520781	-0.479682	0.0488286	0.705837	1.20199	0	0	0.206476	-0.265301	0.0476505	0.922172	1.5708	0	0
62.16	0.13716	1.23536	1.55671	0.69943	0.523892	0.77625	1.13289	-0.183167	-0.0173893	1.33764	-0.0849491	0	0	1.05677	-0.259824	-0.170366	1.20563	-0.148091	0	0	-0.612285	0.26302	0.0383745	0.523308	-0.480149	0.047943	0.711044	1.20038	0	0	0.208169	-0.263833	0.0468778	0.921454	1.5708	0	0
62.17	0.135102	1.23304	1.55816	0.699493	0.522825	0.774341	1.14124	-0.182905	-0.0146577	1.34346	-0.0842236	0	0	1.0646	-0.259376	-0.168451	1.2123	-0.147545	0	0	-0.617552	0.262855	0.0391896	0.528577	-0.481434	0.0531296	0.714542	1.1957	0	0	0.209746	-0.262916	0.0457778	0.922362	1.5708	0	0
62.18	0.131525	1.22733	1.56107	0.699515	0.521737	0.77212	1.15345	-0.182653	-0.0104209	1.34929	-0.0848976	0	0	1.0763	-0.257858	-0.1656	1.21912	-0.145833	0	0	-0.618768	0.262199	0.0408256	0.530949	-0.482116	0.0527947	0.718815	1.19994	0	0	0.21174	-0.261369	0.0461241	0.921754	1.5708	0	0
62.19	0.128734	1.22276	1.56352	0.699549	0.520777	0.770089	1.16391	-0.182652	-0.00696682	1.35484	-0.0854323	0	0	1.0866	-0.256564	-0.162808	1.22584	-0.144331	0	0	-0.621029	0.26174	0.0425347	0.533221	-0.482785	0.0531665	0.722837	1.204	0	0	0.213956	-0.260197	0.0469462	0.921002	1.5708	0	0
62.2	0.125923	1.21946	1.56619	0.699509	0.519906	0.768236	1.17278	-0.183183	-0.0041839	1.36061	-0.0855358	0	0	1.09522	-0.255131	-0.160432	1.23217	-0.142951	0	0	-0.624254	0.261463	0.0442182	0.535313	-0.483277	0.0533032	0.727077	1.20601	0	0	0.21638	-0.259121	0.0483943	0.920471	1.5708	0	0
62.21	0.123022	1.21682	1.56897	0.699403	0.519107	0.766488	1.18081	-0.184217	-0.00208653	1.36649	-0.0853623	0	0	1.10285	-0.253565	-0.158169	1.23826	-0.141564	0	0	-0.627803	0.261219	0.0458981	0.536873	-0.483494	0.0528117	0.731997	1.20414	0	0	0.218904	-0.258052	0.050244	0.919996	1.5708	0	0
62.22	0.12039	1.21381	1.57118	0.699311	0.518355	0.764745	1.18888	-0.185079	-0.000190815	1.37182	-0.0850892	0	0	1.11063	-0.252322	-0.155934	1.24404	-0.140135	0	0	-0.630698	0.260861	0.0479956	0.537598	-0.483764	0.0522793	0.737779	1.19879	0	0	0.221438	-0.257019	0.0524028	0.919376	1.5708	0	0
62.23	0.117577	1.20741	1.57294	0.699196	0.517546	0.762655	1.20086	-0.185559	0.00233632	1.37693	-0.0859557	0	0	1.12214	-0.250913	-0.153014	1.24985	-0.136998	0	0	-0.629803	0.259435	0.0527855	0.534	-0.49142	0.062206	0.749315	1.1615	0	0	0.225215	-0.255202	0.0572195	0.917603	1.5708	0	0
62.24	0.115188	1.20398	1.57392	0.699099	0.516836	0.760928	1.20926	-0.185921	0.00424498	1.3816	-0.0864077	0	0	1.1299	-0.250268	-0.150977	1.25531	-0.135151	0	0	-0.631999	0.258416	0.0553037	0.533655	-0.492265	0.0613159	0.757883	1.15598	0	0	0.226766	-0.254209	0.0583301	0.918101	1.5708	0	0
62.25	0.113993	1.20184	1.57376	0.699049	0.516208	0.759375	1.21607	-0.186137	0.00529063	1.38641	-0.0868707	0	0	1.13622	-0.250149	-0.148865	1.26084	-0.133214	0	0	-0.634051	0.258572	0.0554761	0.536668	-0.490832	0.0631436	0.763633	1.1519	0	0	0.227246	-0.253632	0.0577241	0.917601	1.5708	0	0
62.26	0.112384	1.19943	1.57383	0.698972	0.515593	0.75784	1.22304	-0.186314	0.00657385	1.39104	-0.0872697	0	0	1.14257	-0.250028	-0.147148	1.26621	-0.131189	0	0	-0.635575	0.258374	0.0556402	0.538934	-0.489664	0.0645412	0.770757	1.14841	0	0	0.227596	-0.25308	0.0569073	0.917216	1.5708	0	0
62.27	0.110434	1.19876	1.57398	0.698854	0.515031	0.756533	1.22768	-0.186489	0.00766525	1.39532	-0.0866297	0	0	1.14655	-0.250239	-0.146399	1.27124	-0.131109	0	0	-0.63848	0.258211	0.0551609	0.54197	-0.484725	0.0573243	0.776053	1.16523	0	0	0.227886	-0.253173	0.0560881	0.916374	1.5708	0	0
62.28	0.108248	1.19364	1.57415	0.698689	0.514418	0.754778	1.23741	-0.186202	0.00976578	1.39939	-0.0878282	0	0	1.15564	-0.249755	-0.14441	1.27644	-0.127055	0	0	-0.636392	0.25699	0.0556584	0.542675	-0.487299	0.0653087	0.783667	1.14096	0	0	0.227589	-0.252315	0.0545764	0.915715	1.5708	0	0
62.29	0.106781	1.19314	1.57367	0.698582	0.513995	0.753589	1.24135	-0.186132	0.0107708	1.40289	-0.0872472	0	0	1.15907	-0.250377	-0.143728	1.28106	-0.127027	0	0	-0.6388	0.256354	0.0557438	0.544329	-0.483656	0.0601587	0.787539	1.14945	0	0	0.228088	-0.252232	0.0537222	0.91477	1.5708	0	0
62.3	0.105785	1.19079	1.57296	0.698403	0.513587	0.752255	1.24732	-0.186273	0.0117579	1.40656	-0.0876608	0	0	1.16467	-0.250453	-0.142167	1.28568	-0.125087	0	0	-0.6389	0.255579	0.056277	0.545508	-0.484884	0.0658436	0.791116	1.14531	0	0	0.2282	-0.251256	0.0521897	0.914562	1.5708	0	0
62.31	0.104863	1.18867	1.57225	0.698195	0.513206	0.750998	1.25287	-0.186454	0.0129276	1.41019	-0.0879961	0	0	1.16993	-0.250482	-0.140628	1.29011	-0.123283	0	0	-0.638999	0.254763	0.0570113	0.547616	-0.487559	0.0761974	0.792651	1.14851	0	0	0.228522	-0.250315	0.0509719	0.914159	1.5708	0	0
62.32	0.104536	1.18635	1.57075	0.698042	0.512849	0.749757	1.2582	-0.185782	0.0147948	1.41325	-0.0881183	0	0	1.17539	-0.250864	-0.138835	1.29452	-0.121531	0	0	-0.638736	0.253933	0.0581213	0.550195	-0.490068	0.087805	0.792779	1.15637	0	0	0.228779	-0.249639	0.050116	0.913593	1.5708	0	0
62.33	0.104968	1.18164	1.56851	0.697798	0.512471	0.74827	1.26629	-0.185013	0.0158449	1.41607	-0.0896236	0	0	1.18366	-0.250438	-0.135472	1.29905	-0.117434	0	0	-0.635175	0.253793	0.0577719	0.55464	-0.490365	0.0992816	0.788764	1.18014	0	0	0.22711	-0.248606	0.046764	0.913495	1.5708	0	0
62.34	0.10577	1.17925	1.56622	0.697433	0.512178	0.747094	1.27161	-0.185127	0.0153936	1.41856	-0.0904522	0	0	1.18898	-0.250149	-0.132956	1.30314	-0.115346	0	0	-0.634149	0.25361	0.0588062	0.557073	-0.493006	0.1096	0.787425	1.18771	0	0	0.227135	-0.247613	0.0460613	0.913061	1.5708	0	0
62.35	0.106239	1.17676	1.56421	0.697029	0.511907	0.745962	1.27681	-0.185277	0.0156771	1.42065	-0.0910065	0	0	1.19425	-0.24982	-0.130729	1.30709	-0.11336	0	0	-0.63271	0.253157	0.0598661	0.558878	-0.495938	0.119776	0.785889	1.19315	0	0	0.227242	-0.246578	0.0457633	0.912639	1.5708	0	0
62.36	0.107544	1.17452	1.5615	0.696664	0.511709	0.744936	1.28115	-0.185046	0.0160117	1.42267	-0.0911706	0	0	1.19917	-0.249735	-0.128274	1.31089	-0.111428	0	0	-0.631424	0.252681	0.0610998	0.559584	-0.498909	0.12828	0.785554	1.19615	0	0	0.22732	-0.245634	0.0453171	0.912782	1.5708	0	0
62.37	0.108182	1.17286	1.55865	0.696475	0.511536	0.743977	1.28512	-0.183715	0.0168656	1.42494	-0.0915443	0	0	1.20321	-0.250595	-0.126534	1.31465	-0.109493	0	0	-0.630566	0.251204	0.0627455	0.559447	-0.501565	0.134492	0.786804	1.19584	0	0	0.227268	-0.245129	0.0446172	0.913686	1.5708	0	0
62.38	0.108574	1.17114	1.55608	0.696222	0.511384	0.74301	1.28914	-0.182564	0.0182199	1.42728	-0.0917013	0	0	1.20722	-0.251239	-0.124787	1.3184	-0.107534	0	0	-0.629193	0.249816	0.0636234	0.559468	-0.503743	0.139979	0.788585	1.1925	0	0	0.226579	-0.244972	0.0437113	0.914928	1.5708	0	0
62.39	0.109356	1.17025	1.55347	0.695903	0.511271	0.74217	1.2919	-0.18177	0.0192633	1.42921	-0.0918239	0	0	1.21027	-0.251788	-0.123091	1.32204	-0.105637	0	0	-0.627247	0.249734	0.061923	0.562775	-0.5036	0.148128	0.787194	1.18726	0	0	0.225029	-0.245568	0.0419999	0.914871	1.5708	0	0
62.4	0.110423	1.16989	1.55079	0.695587	0.511231	0.741474	1.29378	-0.181122	0.0197797	1.43086	-0.0919836	0	0	1.21248	-0.252277	-0.121467	1.32533	-0.103734	0	0	-0.625776	0.24967	0.0604914	0.565526	-0.503741	0.156079	0.786659	1.18083	0	0	0.223838	-0.246251	0.0406415	0.914766	1.5708	0	0
62.41	0.111876	1.17033	1.54779	0.695302	0.511244	0.740924	1.29454	-0.180396	0.0197735	1.4323	-0.0920125	0	0	1.21365	-0.252767	-0.119767	1.32836	-0.101795	0	0	-0.625048	0.249387	0.0595081	0.567809	-0.504349	0.163977	0.786897	1.1738	0	0	0.222933	-0.246999	0.0391201	0.915132	1.5708	0	0
